<svg xmlns="http://www.w3.org/2000/svg" width="112" height="112"><path d="M47.496 35.023c0-2.93 4.2-5.402 9.172-5.402s9.176 2.473 9.176 5.402-4.203 5.403-9.176 5.403-9.172-2.473-9.172-5.403m47.856-1.113c.265.52.43 1.09.43 1.672v40.145a3.65 3.65 0 0 1-1.696 3.09L58.145 101.75a3.6 3.6 0 0 1-1.958.57c-.699 0-1.374-.195-1.96-.57L18.289 78.816a3.64 3.64 0 0 1-1.695-3.09V35.583c0-.617.164-1.21.453-1.742q.018-.03.035-.067c.14-.246.305-.484.504-.695.004-.004.004-.008.012-.016.183-.195.394-.363.617-.515.031-.02.05-.05.082-.07L54.23 9.555a3.65 3.65 0 0 1 3.91.004l35.938 22.918c.008.003.012.011.016.015q.317.206.594.477c.015.015.027.039.042.054.063.063.11.137.165.204q.193.227.351.484zM57.238 78.06V57.547zc-.75.277-1.601.199-2.293-.239L16.594 53.2v4.812l36.5 22.718a6.06 6.06 0 0 0 4.144.875v14.82-14.82a6.05 6.05 0 0 0 2.461-.957l12.887-8.433c.5.844 1.195 1.476 2.066 1.793 2.79 1.012 6.305-1.602 7.852-5.84 1.543-4.238.535-8.496-2.258-9.508-2.789-1.015-6.305 1.598-7.848 5.836-.5 1.363-.73 2.727-.726 3.984l-13.895 9.305a2.7 2.7 0 0 1-.539.274m-1.05-61.211L27.215 35.5l28.973 18.68L85.156 35.5Zm0 0" style="stroke:none;fill-rule:evenodd;fill:#00ce5b;fill-opacity:1"/></svg>